<svg width="30" height="30" viewBox="0 0 30 30" fill="none" xmlns="http://www.w3.org/2000/svg">
<g clip-path="url(#clip0_2_60)">
<path d="M30 15C30 23.2844 23.2844 30 15 30C6.71562 30 0 23.2844 0 15C0 6.71562 6.71562 0 15 0C23.2844 0 30 6.71562 30 15Z" fill="#FFDF40"/>
<path d="M30 15C30 13.4821 29.7736 12.0172 29.3546 10.6364L25.2338 6.51558L23.5581 7.4762C23.4467 7.36015 23.3329 7.24686 23.2171 7.13631C21.0748 4.89693 18.1194 3.6248 15 3.6248C8.72772 3.6248 3.6248 8.72772 3.6248 15C3.6248 18.2291 4.97726 21.148 7.14546 23.2205C7.14546 23.2205 11.599 27.6771 13.881 29.9586C14.2506 29.9858 14.6235 30 15 30C23.2844 30 30 23.2844 30 15Z" fill="#FF9F40"/>
<path d="M25.1035 15C25.1035 20.5799 20.5799 25.1035 15 25.1035C9.42009 25.1035 4.89647 20.5799 4.89647 15C4.89647 9.42009 9.42009 4.89647 15 4.89647C20.5799 4.89647 25.1035 9.42009 25.1035 15Z" fill="white"/>
<path d="M25.1033 15C25.1033 20.5769 20.5852 25.0987 15.0082 25.1035V4.89647C19.5481 4.90013 23.3874 7.89803 24.6568 12.022C24.947 12.9636 25.1033 13.9636 25.1033 15Z" fill="white"/>
<path d="M23.8316 15C23.8316 19.8699 19.8697 23.8316 15 23.8316C10.1301 23.8316 6.16837 19.8699 6.16837 15C6.16837 10.1301 10.1301 6.16837 15 6.16837C17.3708 6.16837 19.6202 7.11411 21.2748 8.78517L19.614 9.73709L24.6577 12.0229L25.2338 6.51558L23.5398 7.48672C21.3773 5.02968 18.2792 3.6248 15 3.6248C8.72772 3.6248 3.6248 8.72772 3.6248 15C3.6248 21.2723 8.72772 26.3752 15 26.3752C21.2723 26.3752 26.3752 21.2723 26.3752 15H23.8316Z" fill="#262626"/>
<path d="M21.275 8.78517C19.6218 7.11571 17.376 6.17065 15.0082 6.16814V3.6248C18.2845 3.62709 21.3794 5.03174 23.54 7.48627L25.2338 6.51581L24.6579 12.0227L24.6568 12.022L19.614 9.73709L21.275 8.78517Z" fill="#262626"/>
<path d="M26.375 15C26.375 21.2691 21.2773 26.3704 15.0082 26.3752V23.8319C19.8747 23.8271 23.8316 19.8672 23.8316 15H26.375Z" fill="#262626"/>
<path d="M8.58124 18.157C8.58124 17.7914 8.60939 17.4605 8.66638 17.1638C8.72292 16.8674 8.82271 16.5932 8.96484 16.3415C9.10698 16.0899 9.30176 15.8542 9.54964 15.6349C9.79752 15.4156 10.112 15.2005 10.494 14.9892C10.8268 14.8107 11.1214 14.6542 11.3773 14.52C11.6331 14.3861 11.8462 14.2623 12.017 14.1486C12.1875 14.0348 12.3173 13.9192 12.4068 13.8011C12.496 13.6835 12.5407 13.5475 12.5407 13.393C12.5407 13.1493 12.4434 12.9403 12.2482 12.7657C12.0534 12.591 11.7732 12.5036 11.4077 12.5036C11.2127 12.5036 11.0339 12.5301 10.8717 12.5828C10.7089 12.6357 10.5567 12.7068 10.4146 12.7961C10.2724 12.8856 10.1424 12.9849 10.0248 13.0946C9.90692 13.2042 9.79935 13.32 9.70184 13.4418L8.65425 12.2356C8.75954 12.122 8.91014 11.998 9.10492 11.8641C9.29993 11.73 9.52927 11.6041 9.7934 11.4862C10.0573 11.3686 10.3496 11.2713 10.6705 11.1939C10.9914 11.1168 11.3347 11.0781 11.7002 11.0781C12.1145 11.0781 12.4839 11.1289 12.8089 11.2303C13.1335 11.3322 13.4077 11.4741 13.6311 11.657C13.8544 11.8396 14.025 12.0589 14.1428 12.3148C14.2605 12.5706 14.3195 12.849 14.3195 13.1493C14.3195 13.4338 14.2667 13.6855 14.1611 13.9048C14.0554 14.1241 13.9215 14.3191 13.759 14.4896C13.5965 14.6601 13.4198 14.8084 13.2291 14.9343C13.0383 15.0604 12.8533 15.1719 12.6748 15.2694C12.5285 15.3506 12.3619 15.444 12.1751 15.5495C11.9881 15.6553 11.8037 15.7711 11.6208 15.897C11.4381 16.0229 11.2695 16.1529 11.1152 16.2868C10.9607 16.4207 10.843 16.553 10.762 16.6827H14.4534V18.157H8.58124Z" fill="#262626"/>
<path d="M18.791 19.7042V17.8887H15.2332V16.439L19.3149 11.1999H20.4236V16.4268H21.4957V17.8887H20.4236V19.7042H18.791ZM16.8661 16.4268H18.9736V13.6732L16.8661 16.4268Z" fill="#262626"/>
</g>
<defs>
<clipPath id="clip0_2_60">
<rect width="30" height="30" fill="white"/>
</clipPath>
</defs>
</svg>
