<svg width="70" height="70" viewBox="0 0 70 70" fill="none" xmlns="http://www.w3.org/2000/svg">
<circle cx="35" cy="35" r="35" fill="#C2D8FE"/>
<path d="M25 28.052C26.4216 28.052 27.5781 26.8954 27.5781 25.4739C27.5781 24.0522 26.4216 22.8958 25 22.8958C23.5784 22.8958 22.4219 24.0523 22.4219 25.4739C22.4219 26.8954 23.5784 28.052 25 28.052Z" fill="#4472E8"/>
<path d="M25 30.3956C24.4808 30.3956 23.9804 30.3142 23.5102 30.1646L21.172 31.4886V33.0518H28.8282V31.4886L26.49 30.1646C26.0197 30.3142 25.5193 30.3956 25 30.3956Z" fill="#4472E8"/>
<path d="M55 44.9269V41.0862H15V44.9269H31.25V47.9603L28.8713 50.2296H25.5859V52.5734H44.4141V50.2296H41.1287L38.75 47.9603V44.9269H55Z" fill="#4472E8"/>
<path d="M55 38.7424V17.4268H15V38.7424H55ZM38.6123 21.8019H51.2448V24.1457H38.6123V21.8019ZM38.6123 26.8019H48.7448V29.1457H38.6123V26.8019ZM38.6123 31.8019H51.2448V34.1457H38.6123V31.8019ZM33.7552 21.8019H36.2448V24.1457H33.7552V21.8019ZM33.7552 26.8019H36.2448V29.1457H33.7552V26.8019ZM33.7552 31.8019H36.2448V34.1457H33.7552V31.8019ZM18.8282 30.1223L21.3049 28.7198C20.5422 27.8526 20.0781 26.7167 20.0781 25.4738C20.0781 22.7598 22.2861 20.5519 25 20.5519C27.714 20.5519 29.9219 22.7599 29.9219 25.4738C29.9219 26.7167 29.4578 27.8527 28.6951 28.7199L31.1719 30.1223V35.3956H18.8281V30.1223H18.8282Z" fill="#4472E8"/>
</svg>
