<svg width="70" height="70" viewBox="0 0 70 70" fill="none" xmlns="http://www.w3.org/2000/svg">
<circle cx="35" cy="35" r="35" fill="#C2D8FE"/>
<path d="M31.25 15H38.75C39.5258 14.9996 40.2827 15.2398 40.9162 15.6876C41.5498 16.1353 42.0289 16.7686 42.2875 17.5H46.25C47.2446 17.5 48.1984 17.8951 48.9017 18.5984C49.6049 19.3016 50 20.2554 50 21.25V51.25C50 52.2446 49.6049 53.1984 48.9017 53.9016C48.1984 54.6049 47.2446 55 46.25 55H23.75C22.7554 55 21.8016 54.6049 21.0983 53.9016C20.3951 53.1984 20 52.2446 20 51.25V21.25C20 20.2554 20.3951 19.3016 21.0983 18.5984C21.8016 17.8951 22.7554 17.5 23.75 17.5H27.7125C27.9711 16.7686 28.4502 16.1353 29.0838 15.6876C29.7173 15.2398 30.4742 14.9996 31.25 15ZM30 18.75C30 19.0815 30.1317 19.3995 30.3661 19.6339C30.6005 19.8683 30.9185 20 31.25 20H38.75C39.0815 20 39.3995 19.8683 39.6339 19.6339C39.8683 19.3995 40 19.0815 40 18.75C40 18.4185 39.8683 18.1005 39.6339 17.8661C39.3995 17.6317 39.0815 17.5 38.75 17.5H31.25C30.9185 17.5 30.6005 17.6317 30.3661 17.8661C30.1317 18.1005 30 18.4185 30 18.75ZM41.875 33.125C42.3723 33.125 42.8492 32.9275 43.2008 32.5758C43.5525 32.2242 43.75 31.7473 43.75 31.25C43.75 30.7527 43.5525 30.2758 43.2008 29.9242C42.8492 29.5725 42.3723 29.375 41.875 29.375C41.3777 29.375 40.9008 29.5725 40.5492 29.9242C40.1975 30.2758 40 30.7527 40 31.25C40 31.7473 40.1975 32.2242 40.5492 32.5758C40.9008 32.9275 41.3777 33.125 41.875 33.125ZM41.875 40.625C42.3723 40.625 42.8492 40.4275 43.2008 40.0758C43.5525 39.7242 43.75 39.2473 43.75 38.75C43.75 38.2527 43.5525 37.7758 43.2008 37.4242C42.8492 37.0725 42.3723 36.875 41.875 36.875C41.3777 36.875 40.9008 37.0725 40.5492 37.4242C40.1975 37.7758 40 38.2527 40 38.75C40 39.2473 40.1975 39.7242 40.5492 40.0758C40.9008 40.4275 41.3777 40.625 41.875 40.625ZM40 46.25C40 46.7473 40.1975 47.2242 40.5492 47.5758C40.9008 47.9275 41.3777 48.125 41.875 48.125C42.3723 48.125 42.8492 47.9275 43.2008 47.5758C43.5525 47.2242 43.75 46.7473 43.75 46.25C43.75 45.7527 43.5525 45.2758 43.2008 44.9242C42.8492 44.5725 42.3723 44.375 41.875 44.375C41.3777 44.375 40.9008 44.5725 40.5492 44.9242C40.1975 45.2758 40 45.7527 40 46.25ZM37.5 31.25C37.5 30.9185 37.3683 30.6005 37.1339 30.3661C36.8995 30.1317 36.5815 30 36.25 30H27.5C27.1685 30 26.8505 30.1317 26.6161 30.3661C26.3817 30.6005 26.25 30.9185 26.25 31.25C26.25 31.5815 26.3817 31.8995 26.6161 32.1339C26.8505 32.3683 27.1685 32.5 27.5 32.5H36.25C36.5815 32.5 36.8995 32.3683 37.1339 32.1339C37.3683 31.8995 37.5 31.5815 37.5 31.25ZM37.5 38.75C37.5 38.4185 37.3683 38.1005 37.1339 37.8661C36.8995 37.6317 36.5815 37.5 36.25 37.5H27.5C27.1685 37.5 26.8505 37.6317 26.6161 37.8661C26.3817 38.1005 26.25 38.4185 26.25 38.75C26.25 39.0815 26.3817 39.3995 26.6161 39.6339C26.8505 39.8683 27.1685 40 27.5 40H36.25C36.5815 40 36.8995 39.8683 37.1339 39.6339C37.3683 39.3995 37.5 39.0815 37.5 38.75ZM37.5 46.25C37.5 45.9185 37.3683 45.6005 37.1339 45.3661C36.8995 45.1317 36.5815 45 36.25 45H27.5C27.1685 45 26.8505 45.1317 26.6161 45.3661C26.3817 45.6005 26.25 45.9185 26.25 46.25C26.25 46.5815 26.3817 46.8995 26.6161 47.1339C26.8505 47.3683 27.1685 47.5 27.5 47.5H36.25C36.5815 47.5 36.8995 47.3683 37.1339 47.1339C37.3683 46.8995 37.5 46.5815 37.5 46.25Z" fill="#4472E8"/>
</svg>
