<svg width="70" height="70" viewBox="0 0 70 70" fill="none" xmlns="http://www.w3.org/2000/svg">
<circle cx="35" cy="35" r="35" fill="#C2D8FE"/>
<path d="M23.2958 22.4333C26.6161 19.773 30.7454 18.3265 35 18.3333C39.4271 18.3333 43.4958 19.8666 46.7042 22.4333L49.7313 19.4062L52.6771 22.352L49.65 25.3791C51.8536 28.1377 53.2334 31.4625 53.6309 34.9707C54.0283 38.479 53.4271 42.0282 51.8964 45.2098C50.3658 48.3914 47.9679 51.0763 44.9788 52.9553C41.9896 54.8343 38.5307 55.8312 35 55.8312C31.4693 55.8312 28.0104 54.8343 25.0212 52.9553C22.0321 51.0763 19.6342 48.3914 18.1036 45.2098C16.573 42.0282 15.9718 38.479 16.3692 34.9707C16.7666 31.4625 18.1465 28.1377 20.35 25.3791L17.3229 22.3541L20.2688 19.4083L23.2958 22.4353V22.4333ZM37.0833 34.9999V25.6145L26.6667 39.1666H32.9167V48.5416L43.3333 34.9999H37.0833ZM26.6667 12.0833H43.3333V16.2499H26.6667V12.0833Z" fill="#4572E8"/>
</svg>
