<svg width="70" height="70" viewBox="0 0 70 70" fill="none" xmlns="http://www.w3.org/2000/svg">
<circle cx="35" cy="35" r="35" fill="#C2D8FE"/>
<g clip-path="url(#clip0_2_255)">
<path d="M54.3012 27.2876L50.9936 23.9799L53.4801 21.4944C53.6999 21.2748 53.8235 20.9772 53.8235 20.6659C53.8235 20.3547 53.6999 20.0571 53.4801 19.8374L50.1511 16.5083C49.7116 16.0689 48.9334 16.0689 48.494 16.5083L46.0084 18.9948L42.7003 15.6865C41.785 14.7713 40.3011 14.7713 39.3857 15.6865C38.4703 16.6018 38.4703 18.0858 39.3857 19.0011L50.9866 30.6021C51.902 31.5174 53.386 31.5174 54.3012 30.6021C55.2165 29.6869 55.2165 28.2029 54.3012 27.2876Z" fill="#4472E8"/>
<path d="M30.6145 50.9989L19.0136 39.3979C18.0982 38.4826 16.6144 38.4826 15.699 39.3979C14.7837 40.3132 14.7837 41.7972 15.699 42.7125L19.0072 46.0207L16.5255 48.5013C16.3058 48.7211 16.1822 49.0186 16.1822 49.3298C16.1822 49.6411 16.3058 49.9387 16.5255 50.1583L19.8546 53.4863C20.0834 53.7153 20.3833 53.8297 20.6831 53.8297C20.983 53.8297 21.2828 53.7153 21.5117 53.4864L23.9923 51.0058L27.2999 54.3135C28.2152 55.2287 29.6992 55.2287 30.6145 54.3135C31.5299 53.3981 31.5299 51.9141 30.6145 50.9989Z" fill="#4472E8"/>
<path d="M36.0711 28.9446L28.9565 36.0833L33.9284 41.0552L41.0429 33.9163L36.0711 28.9446Z" fill="#4472E8"/>
<path d="M50.9871 33.9165L36.0716 19.0009C35.1563 18.0856 33.6723 18.0856 32.757 19.0009C31.8416 19.9163 31.8416 21.4001 32.757 22.3155L47.6726 37.2311C48.5878 38.1463 50.0718 38.1463 50.9871 37.2311C51.9025 36.3158 51.9025 34.8319 50.9871 33.9165Z" fill="#4472E8"/>
<path d="M37.2434 47.6843L22.3278 32.7687C21.4126 31.8535 19.9286 31.8535 19.0133 32.7687C18.0979 33.6841 18.0979 35.1681 19.0133 36.0833L33.9289 50.9989C34.8441 51.9141 36.3281 51.9141 37.2434 50.9989C38.1588 50.0836 38.1588 48.5997 37.2434 47.6843Z" fill="#4472E8"/>
</g>
<defs>
<clipPath id="clip0_2_255">
<rect width="40" height="40" fill="white" transform="translate(15 15)"/>
</clipPath>
</defs>
</svg>
