<svg width="40" height="40" viewBox="0 0 40 40" fill="none" xmlns="http://www.w3.org/2000/svg">
<circle cx="20" cy="20" r="20" fill="#F3F3F3"/>
<g clip-path="url(#clip0_2_353)">
<path d="M20 10C17.2833 10 16.9442 10.0125 15.8775 10.06C14.8125 10.11 14.0875 10.2775 13.45 10.525C12.7925 10.78 12.2342 11.1225 11.6783 11.6783C11.1225 12.2342 10.7792 12.7917 10.525 13.45C10.2775 14.0875 10.1092 14.8125 10.06 15.8775C10.01 16.9442 10 17.2833 10 20C10 22.7167 10.0125 23.0558 10.06 24.1225C10.11 25.1867 10.2775 25.9125 10.525 26.55C10.7761 27.2174 11.1697 27.822 11.6783 28.3217C12.1777 28.8307 12.7824 29.2243 13.45 29.475C14.0883 29.7217 14.8133 29.8908 15.8775 29.94C16.9442 29.99 17.2833 30 20 30C22.7167 30 23.0558 29.9875 24.1225 29.94C25.1867 29.89 25.9125 29.7217 26.55 29.475C27.2172 29.2236 27.8218 28.8301 28.3217 28.3217C28.8309 27.8224 29.2245 27.2177 29.475 26.55C29.7217 25.9125 29.8908 25.1867 29.94 24.1225C29.99 23.0558 30 22.7167 30 20C30 17.2833 29.9875 16.9442 29.94 15.8775C29.89 14.8133 29.7217 14.0867 29.475 13.45C29.2238 12.7827 28.8302 12.1781 28.3217 11.6783C27.8226 11.1689 27.2178 10.7752 26.55 10.525C25.9125 10.2775 25.1867 10.1092 24.1225 10.06C23.0558 10.01 22.7167 10 20 10ZM20 11.8C22.6692 11.8 22.9875 11.8133 24.0417 11.8592C25.0167 11.905 25.5458 12.0667 25.8975 12.205C26.3658 12.3858 26.6975 12.6025 27.0492 12.9517C27.3983 13.3017 27.615 13.6342 27.7958 14.1025C27.9325 14.4542 28.0958 14.9833 28.14 15.9583C28.1875 17.0133 28.1983 17.33 28.1983 20C28.1983 22.67 28.1858 22.9875 28.1367 24.0417C28.0858 25.0167 27.9233 25.5458 27.7858 25.8975C27.6232 26.3315 27.3675 26.7246 27.0367 27.0492C26.7134 27.3802 26.3206 27.6353 25.8867 27.7958C25.5367 27.9325 24.9992 28.0958 24.0242 28.14C22.9625 28.1875 22.65 28.1983 19.975 28.1983C17.2992 28.1983 16.9867 28.1858 15.9258 28.1367C14.95 28.0858 14.4125 27.9233 14.0625 27.7858C13.6283 27.6252 13.2356 27.3692 12.9133 27.0367C12.5788 26.7156 12.3223 26.3222 12.1633 25.8867C12.0258 25.5367 11.8642 24.9992 11.8133 24.0242C11.7758 22.9742 11.7625 22.65 11.7625 19.9875C11.7625 17.3242 11.7758 16.9992 11.8133 15.9367C11.8642 14.9617 12.0258 14.425 12.1633 14.075C12.3383 13.6 12.5625 13.275 12.9133 12.9242C13.2625 12.575 13.5883 12.35 14.0625 12.1758C14.4125 12.0375 14.9383 11.875 15.9133 11.825C16.9758 11.7875 17.2883 11.775 19.9625 11.775L20 11.8ZM20 14.865C19.3257 14.865 18.6579 14.9978 18.0349 15.2559C17.4119 15.5139 16.8458 15.8922 16.369 16.369C15.8922 16.8458 15.5139 17.4119 15.2559 18.0349C14.9978 18.6579 14.865 19.3257 14.865 20C14.865 20.6743 14.9978 21.3421 15.2559 21.9651C15.5139 22.5881 15.8922 23.1542 16.369 23.631C16.8458 24.1078 17.4119 24.4861 18.0349 24.7441C18.6579 25.0022 19.3257 25.135 20 25.135C21.3619 25.135 22.668 24.594 23.631 23.631C24.594 22.668 25.135 21.3619 25.135 20C25.135 18.6381 24.594 17.332 23.631 16.369C22.668 15.406 21.3619 14.865 20 14.865ZM20 23.3333C18.1583 23.3333 16.6667 21.8417 16.6667 20C16.6667 18.1583 18.1583 16.6667 20 16.6667C21.8417 16.6667 23.3333 18.1583 23.3333 20C23.3333 21.8417 21.8417 23.3333 20 23.3333ZM26.5383 14.6625C26.5268 14.973 26.3953 15.267 26.1715 15.4826C25.9477 15.6982 25.6491 15.8186 25.3383 15.8186C25.0276 15.8186 24.729 15.6982 24.5052 15.4826C24.2814 15.267 24.1499 14.973 24.1383 14.6625C24.1383 14.3442 24.2648 14.039 24.4898 13.814C24.7148 13.5889 25.0201 13.4625 25.3383 13.4625C25.6566 13.4625 25.9618 13.5889 26.1869 13.814C26.4119 14.039 26.5383 14.3442 26.5383 14.6625Z" fill="#FF6262"/>
</g>
<defs>
<clipPath id="clip0_2_353">
<rect width="20" height="20" fill="white" transform="translate(10 10)"/>
</clipPath>
</defs>
</svg>
