<svg width="40" height="40" viewBox="0 0 40 40" fill="none" xmlns="http://www.w3.org/2000/svg">
<circle cx="20" cy="20" r="20" fill="#F3F3F3"/>
<g clip-path="url(#clip0_2_357)">
<path d="M29.5581 15.1836C29.4434 14.7616 29.2196 14.3768 28.9091 14.0676C28.5985 13.7584 28.212 13.5356 27.7881 13.4214C26.2361 13 19.9897 13 19.9897 13C19.9897 13 13.743 13.0128 12.1909 13.4342C11.767 13.5484 11.3805 13.7712 11.0699 14.0804C10.7594 14.3896 10.5356 14.7744 10.4209 15.1964C9.95147 17.9418 9.76936 22.1252 10.4338 24.7608C10.5485 25.1828 10.7723 25.5676 11.0829 25.8768C11.3934 26.186 11.7799 26.4088 12.2038 26.523C13.7558 26.9444 20.0024 26.9444 20.0024 26.9444C20.0024 26.9444 26.2489 26.9444 27.8008 26.523C28.2248 26.4088 28.6113 26.186 28.9219 25.8768C29.2324 25.5676 29.4562 25.1828 29.5709 24.7608C30.0661 22.0115 30.2187 17.8308 29.5581 15.1837V15.1836Z" fill="#FF0000"/>
<path d="M18.0016 22.96L23.1836 19.972L18.0017 16.9839L18.0016 22.96Z" fill="white"/>
</g>
<defs>
<clipPath id="clip0_2_357">
<rect width="20" height="14" fill="white" transform="translate(10 13)"/>
</clipPath>
</defs>
</svg>
